<!-- Save as logo.svg -->
<svg xmlns="http://www.w3.org/2000/svg" viewBox="0 0 120 120" width="120" height="120" role="img" aria-labelledby="logoTitle logoDesc">
  <title id="logoTitle">ClipStream logo</title>
  <desc id="logoDesc">Rounded square with play icon and film-dot strip</desc>

  <!-- background rounded square -->
  <defs>
    <linearGradient id="g1" x1="0" x2="1" y1="0" y2="1">
      <stop offset="0" stop-color="#4F46E5"></stop>
      <stop offset="1" stop-color="#06B6D4"></stop>
    </linearGradient>
    <filter id="soft" x="-50%" y="-50%" width="200%" height="200%">
      <feDropShadow dx="0" dy="4" stdDeviation="6" flood-color="#0f172a" flood-opacity="0.12"></feDropShadow>
    </filter>
  </defs>

  <rect x="6" y="6" rx="18" ry="18" width="108" height="108" fill="url(#g1)" filter="url(#soft)"></rect>

  <!-- film strip left dots -->
  <g fill="#ffffff" opacity="0.12">
    <circle cx="22" cy="30" r="3.5"></circle>
    <circle cx="22" cy="50" r="3.5"></circle>
    <circle cx="22" cy="70" r="3.5"></circle>
    <circle cx="22" cy="90" r="3.5"></circle>
  </g>

  <!-- play triangle with slight rounded corners -->
  <g transform="translate(38,30)">
    <!-- outer subtle ring -->
    <path d="M5 10c0-6.63 5.37-12 12-12h28c6.63 0 12 5.37 12 12v28c0 6.63-5.37 12-12 12H17c-6.63 0-12-5.37-12-12V10z" fill="rgba(255,255,255,0.06)"></path>
    <!-- core triangle -->
    <path d="M12 8 L40 24 L12 40 Z" fill="#fff" transform="translate(2,2) scale(0.9)"></path>
  </g>

  <!-- small accent line -->
  <rect x="34" y="88" width="52" height="4" rx="2" fill="rgba(255,255,255,0.08)"></rect>
</svg>
